<svg width="703" height="983" viewBox="0 0 703 983" fill="none" xmlns="http://www.w3.org/2000/svg">
<g clip-path="url(#clip0_43_637)">
<g clip-path="url(#clip1_43_637)">
<mask id="mask0_43_637" style="mask-type:luminance" maskUnits="userSpaceOnUse" x="-97" y="434" width="800" height="550">
<path d="M703 434H-97V984H703V434Z" fill="white"/>
</mask>
<g mask="url(#mask0_43_637)">
<path d="M576.114 678.937C576.114 678.937 574.096 700.704 569.052 712.052C564.008 723.411 552.9 732.867 551.891 737.601C550.882 742.335 548.865 783.966 548.865 783.966" stroke="#363636" stroke-linecap="round" stroke-linejoin="round"/>
<path d="M548.865 796.254V814.238" stroke="#363636" stroke-linecap="round" stroke-linejoin="round"/>
<path d="M66.3765 697.664C66.3765 697.664 68.394 730.779 91.6077 746.86" stroke="#363636" stroke-linecap="round" stroke-linejoin="round"/>
<path d="M65.3677 688.208C65.3677 688.208 65.3677 674.957 68.394 665.501" stroke="#363636" stroke-linecap="round" stroke-linejoin="round"/>
<path d="M693.017 937.774C672.284 941.94 672.284 968.301 657.489 965.528C642.682 962.755 675.253 940.547 682.662 911.401C690.06 882.254 660.457 862.831 651.575 882.254C642.693 901.678 647.134 948.866 641.209 946.093C635.284 943.32 645.65 848.942 621.961 829.519C598.272 810.084 577.54 832.292 584.949 872.543C592.347 912.793 624.918 948.867 613.079 951.651C601.24 954.424 587.906 910.02 570.142 891.978C552.378 873.935 537.571 887.812 549.41 914.185C561.249 940.559 616.036 982.19 616.036 982.19C616.036 982.19 604.348 985.323 582.653 968.371C560.959 951.419 550.767 951.732 546.488 958.508C542.209 965.285 551.416 972.374 560.298 975.147" stroke="#363636" stroke-linecap="round" stroke-linejoin="round"/>
<path d="M62.3413 835.054C62.3413 835.054 90.5989 839.788 88.5813 851.135C86.5637 862.495 51.2331 861.543 22.9756 876.685C-5.28194 891.827 20.958 910.751 14.9053 928.724C8.85263 946.697 -60.7998 971.306 -60.7998 971.306" stroke="#363636" stroke-linecap="round" stroke-linejoin="round"/>
<path d="M278.975 619.948C287.509 617.581 296.762 614.669 304.136 609.923C318.897 600.443 316.16 596.046 307.881 582.726C284.32 544.842 366.507 534.527 389.697 532.381" stroke="#363636" stroke-linecap="round" stroke-linejoin="round"/>
<path d="M639.273 464.458C641.406 460.025 644.189 455.198 648.978 452.46C654.126 449.513 659.576 448.353 664.516 446.786" stroke="#363636" stroke-linecap="round" stroke-linejoin="round"/>
<path d="M502.727 517.239C502.727 517.239 585.761 523.725 613.45 510.753C625.787 504.975 630.101 495.321 632.942 485.354" stroke="#363636" stroke-linecap="round" stroke-linejoin="round"/>
<path d="M476.557 534.864C476.557 534.864 468.568 543.845 468.568 552.083C468.568 560.321 471.757 571.541 473.357 582.772C474.957 594.004 464.568 614.216 464.568 614.216C464.568 614.216 478.54 604.238 481.334 599.248C484.129 594.259 486.923 585.023 486.923 585.023C486.923 585.023 494.112 579.779 494.912 573.792C495.712 567.805 497.312 564.057 497.312 556.573C497.312 549.089 491.724 531.128 476.545 534.864H476.557Z" fill="white"/>
<path d="M388.723 620.957L428.646 627.699L437.435 618.718L431.046 615.724C431.046 615.724 394.312 618.718 388.723 620.969V620.957Z" fill="white"/>
<path d="M290.5 892.674V998.214H307.267V879.191C307.267 879.191 300.878 887.429 290.5 892.662V892.674Z" fill="white"/>
<path d="M280.111 759.426C280.111 759.426 288.1 787.122 284.9 799.096C281.711 811.071 276.911 821.548 272.922 826.038C268.933 830.529 249.766 847.747 245.766 847.747C245.766 847.747 268.922 845.496 283.3 834.276C297.678 823.045 309.656 805.084 311.244 789.362C312.844 773.64 304.855 755.678 304.855 755.678H286.488L280.099 759.426H280.111Z" fill="white"/>
<path d="M227.411 615.713L199.466 622.454C199.466 622.454 252.967 634.428 276.922 656.891L303.278 652.401C303.278 652.401 285.711 628.453 227.411 615.724V615.713Z" fill="white"/>
<path d="M478.157 613.462C478.157 613.462 481.346 617.21 482.946 624.693C484.546 632.177 484.546 635.171 484.546 635.171C484.546 635.171 492.535 632.92 509.302 638.164C526.069 643.409 543.635 644.906 533.258 647.145C522.88 649.384 506.102 644.151 519.68 650.139C533.258 656.126 542.035 650.893 545.236 659.119C548.424 667.357 549.224 695.796 543.635 697.293C538.047 698.789 522.08 691.306 522.08 698.047C522.08 704.788 534.858 707.028 533.258 716.762C531.658 726.497 530.069 732.484 523.68 739.968C517.291 747.452 508.502 739.214 501.324 737.717C494.135 736.22 504.513 743.704 506.113 754.936C507.713 766.167 496.536 772.897 496.536 772.897C496.536 772.897 484.558 754.182 486.158 762.42C487.758 770.658 492.547 778.884 491.747 784.129C490.947 789.373 477.369 785.625 474.98 777.387C472.58 769.149 459.906 754.518 458.213 761.666C456.521 768.824 466.203 781.124 467.003 790.116C467.803 799.096 459.014 807.334 459.014 807.334L448.636 806.58H442.247C442.247 806.58 440.647 816.315 431.869 823.799C423.08 831.283 418.291 832.037 427.88 836.527C437.458 841.018 461.425 842.514 482.981 842.514C504.536 842.514 526.103 827.547 530.092 823.056C534.081 818.566 530.892 805.838 530.892 796.114C530.892 786.391 540.47 740.722 540.47 740.722C540.47 740.722 562.025 704.788 563.626 692.814C565.226 680.84 558.906 656.764 556.436 653.144C553.967 649.524 548.447 641.17 538.07 634.428C527.692 627.687 486.158 614.97 486.158 614.97C486.158 614.97 489.347 612.719 486.158 608.983C482.969 605.235 479.769 604.493 479.769 604.493L478.169 613.473L478.157 613.462Z" fill="white"/>
<g style="mix-blend-mode:multiply">
<path d="M395.02 618.59C395.02 618.59 378.531 619.275 372.119 629.056C365.707 638.837 361.695 667.404 360.883 676.431C360.083 685.458 344.836 707.26 348.847 714.024" stroke="#363636" stroke-linecap="round" stroke-linejoin="round"/>
<path d="M336.812 772.34C336.812 772.34 336.812 787.145 341.751 792.703C346.691 798.261 349.648 800.106 361.498 800.106C373.348 800.106 372.363 794.548 372.363 794.548" stroke="#363636" stroke-linecap="round" stroke-linejoin="round"/>
<path d="M378.16 807.509C378.16 807.509 373.545 855.08 374.705 871.29C375.853 887.51 381.627 997.68 381.627 997.68H533.861C533.861 997.68 536.168 916.692 536.168 882.103C536.168 847.515 528.098 816.153 528.098 816.153C528.098 816.153 440.45 836.69 378.172 807.509H378.16Z" fill="#363636"/>
<path d="M480.418 616.27C480.418 616.27 499.237 619.403 511.401 624.287C523.564 629.172 551.346 637.317 553.955 649.524C556.564 661.73 551.346 686.154 546.14 713.026C540.934 739.887 533.2 760.528 532.249 775.705C530.162 808.773 533.721 816.872 527.912 822.917C520.549 830.575 488.836 843.269 449.749 840.008C410.673 836.748 378.879 822.105 374.542 805.002C370.206 787.911 379.749 753.021 374.542 704.985C369.336 656.961 379.401 621.015 395.043 618.567C410.673 616.131 452.358 614.495 461.043 614.495C469.727 614.495 480.441 616.247 480.441 616.247L480.418 616.27Z" fill="white" stroke="#363636" stroke-linecap="round" stroke-linejoin="round"/>
<path d="M432.182 656.369L439.209 675.189C439.209 675.189 420.135 758.95 414.105 775.891C410.174 786.96 407.519 802.044 406.151 811.175C405.386 816.28 406.51 821.467 409.316 825.899L414.94 834.787C416.853 837.815 421.144 838.639 424.181 836.551L433.353 830.239C438.328 826.816 441.377 821.455 441.655 815.677L448.242 678.009L464.301 661.068L448.242 637.538L432.182 656.358V656.369Z" fill="#C2B7BC"/>
<path d="M438.606 614.599C438.606 614.599 435.429 618.312 430.675 626.492C425.921 634.672 419.938 660.396 424.703 662.623C429.457 664.851 449.285 652.215 449.285 652.215C449.285 652.215 453.251 670.049 462.77 668.564C472.29 667.079 488.141 634.37 487.352 620.25C486.564 606.129 481.798 603.158 473.867 601.662C465.936 600.177 438.606 614.587 438.606 614.587V614.599Z" fill="white" stroke="#363636" stroke-linecap="round" stroke-linejoin="round"/>
<path d="M438.177 618.022C438.177 618.022 442.931 626.202 443.731 635.113C444.322 641.738 446.908 648.491 450.074 648.491C453.239 648.491 478.621 616.525 478.621 610.584C478.621 604.644 477.033 590.511 477.033 590.511C477.033 590.511 446.897 615.782 438.177 618.01V618.022Z" fill="white" stroke="#363636" stroke-linecap="round" stroke-linejoin="round"/>
<g style="mix-blend-mode:multiply">
<path d="M474.725 608.426C474.725 608.426 465.437 623.231 457.077 628.453C448.717 633.674 443.14 630.193 443.14 630.193L436.936 617.65C436.936 617.65 466.365 613.648 474.725 608.415V608.426Z" fill="#C2B7BC"/>
</g>
<path d="M430.779 520.035C426.095 522.472 420.842 525.35 419.033 530.397C414.279 543.647 415.218 567.828 417.711 584.199C419.08 593.215 422.523 611.234 436.936 617.662C455.883 626.121 476.221 609.285 484.164 594.247C493.95 575.718 493.208 551.015 486.772 531.673C484.442 524.665 479.978 520.082 472.557 517.784C459.338 513.689 443.221 513.561 430.791 520.035H430.779Z" fill="white" stroke="#363636" stroke-linecap="round" stroke-linejoin="round"/>
<path d="M434.177 561.667C434.177 561.667 433.492 579.686 433.492 586.125C433.492 592.565 436.24 593.853 440.357 593.853C444.473 593.853 450.653 586.125 450.653 586.125" fill="white"/>
<path d="M434.177 561.667C434.177 561.667 433.492 579.686 433.492 586.125C433.492 592.565 436.24 593.853 440.357 593.853C444.473 593.853 450.653 586.125 450.653 586.125" stroke="#363636" stroke-linecap="round" stroke-linejoin="round"/>
<path d="M450.039 555.54C450.039 555.54 457.367 554.577 464.046 558.766L450.039 555.54Z" fill="white"/>
<path d="M450.039 555.54C450.039 555.54 457.367 554.577 464.046 558.766" stroke="#363636" stroke-linecap="round" stroke-linejoin="round"/>
<path d="M432.762 550.597C432.762 550.597 425.805 549.449 421.909 553.951L432.762 550.597Z" fill="white"/>
<path d="M432.762 550.597C432.762 550.597 425.805 549.449 421.909 553.951" stroke="#363636" stroke-linecap="round" stroke-linejoin="round"/>
<path d="M449.842 570.752C449.842 570.752 453.715 574.024 463.71 571.958L449.842 570.752Z" fill="white"/>
<path d="M449.842 570.752C449.842 570.752 453.715 574.024 463.71 571.958" stroke="#363636" stroke-linecap="round" stroke-linejoin="round"/>
<path d="M420.448 568.106C420.448 568.106 425.26 573.258 430.744 570.032L420.448 568.106Z" fill="white"/>
<path d="M420.448 568.106C420.448 568.106 425.26 573.258 430.744 570.032" stroke="#363636" stroke-linecap="round" stroke-linejoin="round"/>
<path d="M486.761 531.673C486.761 531.673 488.431 505.671 470.574 499.881" stroke="#363636" stroke-miterlimit="10"/>
<path d="M491.167 532.068C491.167 532.068 476.743 503.107 451.349 500.531" stroke="#363636" stroke-miterlimit="10" stroke-linecap="round"/>
<path d="M498.727 542.359C496.663 533.344 491.179 532.056 491.179 532.056C491.179 532.056 486.703 522.634 479.131 515.348C479.259 515.348 479.375 515.325 479.502 515.325C479.502 515.325 478.215 513.967 475.432 512.192C473.705 510.892 471.849 509.767 469.89 508.897C468.591 508.317 467.177 507.876 465.669 507.551C459.674 505.451 451.581 503.745 441.053 503.745C413.584 503.745 398.487 516.613 397.107 528.204C395.738 539.784 412.899 528.204 410.835 530.13C408.771 532.056 395.727 539.784 404.655 545.573C410.209 549.17 416.517 547.79 421.955 544.784C424.877 543.172 434.107 538.472 435.765 535.897C434.536 537.799 432.345 540.839 429.365 543.636C424.553 548.138 420.436 549.426 420.436 549.426C420.436 549.426 428.68 550.064 436.913 544.274C445.157 538.484 456.822 532.694 467.814 532.694C478.807 532.694 476.743 541.71 476.743 541.71C476.743 541.71 469.194 550.075 473.995 554.577C478.795 559.079 482.239 559.079 482.923 561.017C483.607 562.943 482.239 568.095 484.291 568.095C486.343 568.095 485.659 558.441 489.103 558.441C492.547 558.441 496.652 564.231 496.652 564.231C496.652 564.231 500.768 551.363 498.716 542.348L498.727 542.359Z" fill="#363636"/>
<path d="M482.934 570.682C482.934 570.682 485.683 556.526 493.231 556.526C500.779 556.526 498.043 565.542 495.295 574.546C492.547 583.561 485.683 584.838 485.683 584.838" fill="white"/>
<path d="M482.934 570.682C482.934 570.682 485.683 556.526 493.231 556.526C500.779 556.526 498.043 565.542 495.295 574.546C492.547 583.561 485.683 584.838 485.683 584.838" stroke="#363636" stroke-linecap="round" stroke-linejoin="round"/>
<path d="M527.483 654.687C527.483 654.687 498.692 668.46 494.066 685.319C489.439 702.178 473.194 736.278 466.736 741.604C466.736 741.604 457.552 748.844 467.095 753.729C476.65 758.614 485.335 777.341 488.802 786.287C492.28 795.244 505.986 791.253 506.426 784.755C506.867 778.258 513.604 768.871 519.946 765.17C526.289 761.468 552.459 722.251 560.947 699.915C569.435 677.579 557.329 650.754 549.537 650.289" fill="white"/>
<path d="M527.483 654.687C527.483 654.687 498.692 668.46 494.066 685.319C489.439 702.178 473.194 736.278 466.736 741.604C466.736 741.604 457.552 748.844 467.095 753.729C476.65 758.614 485.335 777.341 488.802 786.287C492.28 795.244 505.986 791.253 506.426 784.755C506.867 778.258 513.604 768.871 519.946 765.17C526.289 761.468 552.459 722.251 560.947 699.915C569.435 677.579 557.329 650.754 549.537 650.289" stroke="#363636" stroke-linecap="round" stroke-linejoin="round"/>
<path d="M334.759 666.974L347.282 732.101C347.734 734.666 350.308 736.418 353.057 736.023C355.967 735.605 357.892 732.972 357.254 730.28L344.349 665.222C343.78 662.844 341.554 661.985 338.992 662.38C336.325 662.797 334.319 664.468 334.759 666.963V666.974Z" fill="white" stroke="#363636" stroke-linecap="round" stroke-linejoin="round"/>
<path d="M352.013 698.244C352.013 698.244 337.82 692.199 334.806 693C331.791 693.812 330.933 702.27 330.933 702.27C330.933 702.27 331.362 705.902 332.649 710.74C333.936 715.579 338.238 722.842 342.969 725.256C347.7 727.681 354.587 727.681 357.161 725.256C359.735 722.831 358.019 713.56 358.019 713.56" fill="white"/>
<path d="M352.013 698.244C352.013 698.244 337.82 692.199 334.806 693C331.791 693.812 330.933 702.27 330.933 702.27C330.933 702.27 331.362 705.902 332.649 710.74C333.936 715.579 338.238 722.842 342.969 725.256C347.7 727.681 354.587 727.681 357.161 725.256C359.735 722.831 358.019 713.56 358.019 713.56" stroke="#363636" stroke-linecap="round" stroke-linejoin="round"/>
<path d="M358.901 689.368C358.901 689.368 351.746 689.217 351.746 694.485C351.746 699.753 351.12 709.116 352.999 710.88C354.877 712.632 361.741 712.632 362.994 706.784C363.747 703.257 364.142 698.511 364.35 695.297C364.524 692.489 362.507 689.832 359.538 689.414C359.318 689.38 359.109 689.368 358.901 689.368Z" fill="white" stroke="#363636" stroke-linecap="round" stroke-linejoin="round"/>
<path d="M315.627 639.847L322.26 675.027C323.929 684.402 333.321 690.795 343.351 689.368C353.984 687.86 361.022 678.229 358.692 668.39L350.668 633.465C348.604 624.786 340.464 621.63 331.107 623.092C321.378 624.612 314.015 630.727 315.639 639.847H315.627Z" fill="white" stroke="#363636" stroke-linecap="round" stroke-linejoin="round"/>
<g style="mix-blend-mode:multiply">
<path d="M333.959 622.802C333.02 622.849 332.069 622.941 331.095 623.092C321.367 624.612 314.004 630.727 315.627 639.847L322.26 675.027C323.929 684.402 333.321 690.795 343.351 689.368C344.882 689.147 346.331 688.753 347.688 688.219L333.959 622.814V622.802Z" fill="#C2B7BC"/>
</g>
<path d="M349.798 631.203C351.224 637.515 344.615 644.163 335.049 646.066C325.472 647.969 316.566 644.384 315.14 638.083C313.714 631.771 320.323 625.123 329.889 623.22C339.467 621.317 348.372 624.902 349.798 631.203Z" fill="white" stroke="#363636" stroke-linecap="round" stroke-linejoin="round"/>
<path d="M350.853 703.697C352.941 709.302 350.332 715.242 345.033 716.971C339.734 718.7 333.762 715.567 331.675 709.963C329.588 704.359 332.197 698.418 337.496 696.689C342.795 694.961 348.766 698.093 350.853 703.697Z" fill="#363636"/>
<path d="M328.602 706.355L283.59 739.4C283.59 739.4 279.497 743.751 284.355 743.727C289.225 743.704 337.403 714.894 337.403 714.894C337.403 714.894 344.383 705.728 328.591 706.343L328.602 706.355Z" fill="#363636"/>
<path d="M457.518 787.54C458.828 781.089 446.989 763.255 439.36 760.354C439.36 760.354 425.932 753.021 414.778 750.724C403.623 748.427 382.879 746.361 366.043 738.019L349.207 729.665C349.207 729.665 346.841 713.212 345.45 708.234C344.047 703.257 340.8 699.799 333.008 699.335C325.205 698.871 315.894 695.042 313.134 697.328C310.363 699.613 311.604 707.028 311.604 707.028L300.461 713.27C295.938 713.003 290.292 712.643 288.436 712.643C285.445 712.643 281.955 717.783 286.442 719.187C290.929 720.591 305.389 721.52 305.389 721.52C312.508 729.375 319.129 738.251 326.689 745.665C330.794 749.691 337.867 750.283 341.508 753.683C341.508 753.683 385.616 787.227 399.681 794.27C423.984 806.429 450.908 808.367 456.335 805.42C461.762 802.484 456.242 793.991 457.553 787.552L457.518 787.54Z" fill="white" stroke="#363636" stroke-linecap="round" stroke-linejoin="round"/>
<g style="mix-blend-mode:multiply">
<path d="M435.046 760.482C435.046 760.482 441.957 774.278 443.406 783.827C444.856 793.365 435.406 799.503 427.405 798.818C419.404 798.133 390.323 787.911 390.323 787.911C390.323 787.911 417.433 804.492 436.855 804.956C456.289 805.408 460.846 808.367 463.756 802.229C466.666 796.091 465.205 775.647 456.486 768.836C447.755 762.025 438.304 754.193 435.035 760.494L435.046 760.482Z" fill="#C2B7BC"/>
</g>
<path d="M498.948 786.763C498.669 785.44 498.461 784.105 498.287 782.771C497.602 777.457 494.715 763.87 482.842 752.963C467.733 739.075 456.057 740.107 452.393 741.616C448.717 743.124 441.087 750.457 441.087 750.457C441.087 750.457 428.414 753.161 435.046 760.482C441.679 767.803 452.532 778.838 453.599 789.292C454.665 799.746 453.854 811.813 466.585 808.239C479.317 804.677 481.276 802.194 492.106 800.245C500.524 798.737 499.724 790.406 498.936 786.763H498.948Z" fill="white" stroke="#363636" stroke-linecap="round" stroke-linejoin="round"/>
<path d="M307.708 709.534C307.708 709.534 321.9 709.534 323.628 711.147C325.344 712.759 325.773 713.966 325.773 713.966" stroke="#363636" stroke-linecap="round" stroke-linejoin="round"/>
<path d="M311.58 707.016C311.58 707.016 317.169 705.902 324.057 705.902C330.944 705.902 334.377 707.921 334.377 707.921" stroke="#363636" stroke-linecap="round" stroke-linejoin="round"/>
<path d="M447.523 753.88C447.523 753.88 470.783 762.907 471.594 775.682" stroke="#363636" stroke-linecap="round" stroke-linejoin="round"/>
<path d="M474.006 783.2C474.006 783.2 474.806 790.719 474.806 794.478" stroke="#363636" stroke-linecap="round" stroke-linejoin="round"/>
<path d="M440.763 600.501C440.763 600.501 450.491 603.1 456.741 596.591L440.763 600.501Z" fill="white"/>
<path d="M440.763 600.501C440.763 600.501 450.491 603.1 456.741 596.591" stroke="#363636" stroke-linecap="round" stroke-linejoin="round"/>
<path d="M426.605 848.594C426.605 848.594 430.06 889.68 433.527 893.996C436.983 898.324 445.065 903.731 445.065 903.731" stroke="white" stroke-linecap="round" stroke-linejoin="round"/>
<path d="M466.968 887.51C466.968 887.51 448.52 910.217 448.52 915.613C448.52 921.008 449.668 996.601 449.668 996.601" stroke="white" stroke-miterlimit="10" stroke-linecap="round"/>
<path d="M525.79 832.374C525.79 832.374 510.798 851.832 476.198 851.832L473.96 843.118" stroke="white" stroke-linecap="round" stroke-linejoin="round"/>
<path d="M307.499 872.728H98.472V998.562H307.499V872.728Z" fill="white" stroke="#363636" stroke-miterlimit="10"/>
<path d="M126.347 998.562V912.782C126.347 909.173 123.228 906.249 119.378 906.249C115.529 906.249 112.41 909.173 112.41 912.782V998.562H126.347Z" fill="#51D289" stroke="#363636" stroke-miterlimit="10"/>
<path d="M282.419 998.562V921.495C282.419 917.887 279.299 914.963 275.45 914.963C271.6 914.963 268.481 917.887 268.481 921.495V998.562H282.419Z" fill="#51D289" stroke="#363636" stroke-miterlimit="10"/>
<path d="M157.005 998.562V923.236C157.005 919.627 153.886 916.703 150.036 916.703C146.186 916.703 143.067 919.627 143.067 923.236V998.562H157.005Z" fill="#51D289" stroke="#363636" stroke-miterlimit="10"/>
<path d="M197.924 998.562V929.791C197.924 924.965 193.75 921.066 188.613 921.066C183.465 921.066 179.302 924.976 179.302 929.791V998.562H197.924Z" fill="#51D289" stroke="#363636" stroke-miterlimit="10"/>
<path d="M247.157 998.562V928.921C247.157 924.094 242.983 920.196 237.846 920.196C232.698 920.196 228.536 924.106 228.536 928.921V998.562H247.157Z" fill="#51D289" stroke="#363636" stroke-miterlimit="10"/>
<path d="M307.499 872.728H98.472V998.562H307.499V872.728Z" stroke="#363636" stroke-miterlimit="10"/>
<path d="M202.991 909.742C260.709 909.742 307.499 893.17 307.499 872.728C307.499 852.287 260.709 835.715 202.991 835.715C145.273 835.715 98.4836 852.287 98.4836 872.728C98.4836 893.17 145.273 909.742 202.991 909.742Z" fill="white" stroke="#363636" stroke-linecap="round" stroke-linejoin="round"/>
<path d="M202.991 909.742C260.709 909.742 307.499 893.17 307.499 872.728C307.499 852.287 260.709 835.715 202.991 835.715C145.273 835.715 98.4836 852.287 98.4836 872.728C98.4836 893.17 145.273 909.742 202.991 909.742Z" stroke="#363636" stroke-linecap="round" stroke-linejoin="round"/>
<g style="mix-blend-mode:multiply">
<path d="M196.486 898.22C238.861 898.22 273.212 887.197 273.212 873.599C273.212 860.001 238.861 848.977 196.486 848.977C154.112 848.977 119.761 860.001 119.761 873.599C119.761 887.197 154.112 898.22 196.486 898.22Z" fill="#C2B7BC"/>
</g>
<path d="M311.314 779.801C311.314 769.706 309.366 761.085 305.702 753.567C305.157 753.184 303.29 751.896 300.066 749.656C296.182 746.965 292.309 747.301 292.309 747.301C292.309 747.301 289.723 742.277 287.138 739.666C284.552 737.067 279.381 738.529 279.381 738.529C279.381 738.529 277.444 735.965 274.847 733.366C272.261 730.767 263.205 730.744 263.205 730.744C263.205 730.744 259.97 722.633 256.735 718.166C255.297 716.182 254.52 715.219 254.08 714.743C242.125 709.859 235.412 709.128 219.99 704.997C185.564 695.703 177.134 691.503 177.134 679.981C177.134 671.418 185.216 665.721 201.727 666.858C202.11 666.882 202.493 666.928 202.887 666.963L244.444 700.82L270.591 694.334L304.67 651.566C282.894 633.604 256.897 621.932 225.277 616.455V595.709L186.63 593.041L160.483 599.527L166.745 611.826L167.313 616.061C130.776 623.359 108.293 647.087 108.293 681.814C108.293 728.899 148.691 744.528 201.032 759.333C234.403 768.883 242.832 771.11 242.832 781.971C242.832 791.845 233 797.101 214.378 795.813C185.923 793.852 159.219 782.458 134.638 762.652L108.49 769.138L89.8568 810.015L119.077 822.987L121.79 821.095C141.258 832.896 163.278 841.064 186.619 845.601V867.333L196.092 867.983L199.118 876.476L225.266 869.99L225.764 849.232C278.163 848.757 311.337 823.753 311.337 779.766L311.314 779.801Z" fill="white" stroke="#363636" stroke-linecap="round" stroke-linejoin="round"/>
<g style="mix-blend-mode:multiply">
<path d="M304.635 651.577L268.898 660.454L244.421 700.82L270.568 694.334L304.635 651.577Z" fill="#C2B7BC"/>
</g>
<g style="mix-blend-mode:multiply">
<path d="M199.107 876.511L225.242 870.025V849.267L197.24 852.4L199.107 876.511Z" fill="#C2B7BC"/>
</g>
<g style="mix-blend-mode:multiply">
<path d="M191.373 723.376C194.156 722.506 222.031 721.636 222.031 721.636L239.771 719.942L244.328 712.922L250.416 713.328C240.595 709.685 233.753 708.698 219.978 704.997C185.552 695.703 177.122 691.503 177.122 679.981C177.122 673.565 181.668 668.75 190.898 667.23C161.863 656.926 128.573 676.303 138.418 698.117C148.633 720.754 188.578 724.246 191.373 723.376Z" fill="#C2B7BC"/>
</g>
<g style="mix-blend-mode:multiply">
<path d="M214.355 795.836C185.9 793.875 159.196 782.481 134.614 762.675L108.467 769.161C108.467 769.161 117.048 790.429 149.561 803.494C182.074 816.559 217.381 807.845 222.019 804.364C225.138 802.032 227.828 797.739 229.266 795.163C225.185 795.987 220.199 796.231 214.343 795.836H214.355Z" fill="#C2B7BC"/>
</g>
<path d="M311.314 779.801C311.314 769.706 309.366 761.085 305.702 753.567C305.157 753.184 303.29 751.896 300.066 749.657C296.182 746.965 292.309 747.301 292.309 747.301C292.309 747.301 289.723 742.277 287.138 739.666C284.552 737.067 279.381 738.529 279.381 738.529C279.381 738.529 277.444 735.965 274.847 733.366C272.261 730.767 263.205 730.744 263.205 730.744C263.205 730.744 259.97 722.633 256.735 718.166C255.297 716.182 254.52 715.219 254.08 714.743C242.125 709.859 235.412 709.128 219.99 704.997C185.564 695.703 177.134 691.503 177.134 679.981C177.134 671.418 185.216 665.721 201.727 666.858C202.11 666.882 202.493 666.928 202.887 666.963L244.444 700.82L270.591 694.334L304.67 651.566C282.894 633.604 256.897 621.932 225.277 616.455V595.709L186.63 593.041L160.483 599.527L166.745 611.826L167.313 616.061C130.776 623.359 108.293 647.087 108.293 681.814C108.293 728.899 148.691 744.528 201.032 759.333C234.403 768.883 242.832 771.11 242.832 781.971C242.832 791.845 233 797.101 214.378 795.813C185.923 793.852 159.219 782.458 134.638 762.652L108.49 769.138L89.8568 810.015L119.077 822.987L121.79 821.095C141.258 832.896 163.278 841.064 186.619 845.601V867.333L196.092 867.983L199.118 876.476L225.266 869.99L225.764 849.232C278.163 848.757 311.337 823.753 311.337 779.766L311.314 779.801Z" stroke="#363636" stroke-linecap="round" stroke-linejoin="round"/>
<path d="M273.931 756.154C270.046 753.462 266.174 753.799 266.174 753.799C266.174 753.799 263.588 748.775 261.002 746.164C258.416 743.565 253.245 745.027 253.245 745.027C253.245 745.027 251.309 742.463 248.711 739.864C246.125 737.265 237.07 737.241 237.07 737.241C237.07 737.241 233.835 729.131 230.599 724.664C229.162 722.68 228.385 721.717 227.944 721.241C215.99 716.356 209.276 715.625 193.854 711.495C159.428 702.201 150.998 698 150.998 686.479C150.998 677.916 159.08 672.219 175.592 673.356C197.379 674.853 221.961 684.123 244.444 700.832L278.522 658.063C256.747 640.102 230.75 628.43 199.13 622.953V602.207L160.483 599.538V620.284C112.711 622.257 82.146 647.806 82.146 688.312C82.146 735.397 122.544 751.026 174.884 765.831C208.256 775.38 216.685 777.608 216.685 788.468C216.685 798.342 206.852 803.598 188.231 802.31C159.776 800.35 133.072 788.956 108.49 769.149L70.5508 809.017C95.1442 831.132 126.405 845.473 160.483 852.098V867.658L199.13 876.488V855.742C251.819 855.428 285.201 830.401 285.201 786.275C285.201 776.181 283.253 767.56 279.589 760.041C279.044 759.658 277.177 758.37 273.954 756.131L273.931 756.154Z" fill="#51D289" stroke="#363636" stroke-linecap="round" stroke-linejoin="round"/>
<path d="M273.931 756.154C270.046 753.462 266.174 753.799 266.174 753.799C266.174 753.799 263.588 748.775 261.002 746.164C258.416 743.565 253.245 745.027 253.245 745.027C253.245 745.027 251.309 742.463 248.711 739.864C246.125 737.265 237.07 737.241 237.07 737.241C237.07 737.241 233.835 729.131 230.599 724.664C229.162 722.68 228.385 721.717 227.944 721.241C215.99 716.356 209.276 715.625 193.854 711.495C159.428 702.201 150.998 698 150.998 686.479C150.998 677.916 159.08 672.219 175.592 673.356C197.379 674.853 221.961 684.123 244.444 700.832L278.522 658.063C256.747 640.102 230.75 628.43 199.13 622.953V602.207L160.483 599.538V620.284C112.711 622.257 82.146 647.806 82.146 688.312C82.146 735.397 122.544 751.026 174.884 765.831C208.256 775.38 216.685 777.608 216.685 788.468C216.685 798.342 206.852 803.598 188.231 802.31C159.776 800.35 133.072 788.956 108.49 769.149L70.5508 809.017C95.1442 831.132 126.405 845.473 160.483 852.098V867.658L199.13 876.488V855.742C251.819 855.428 285.201 830.401 285.201 786.275C285.201 776.181 283.253 767.56 279.589 760.041C279.044 759.658 277.177 758.37 273.954 756.131L273.931 756.154Z" stroke="#363636" stroke-linecap="round" stroke-linejoin="round"/>
<path d="M278.499 658.063L295.127 653.643" stroke="#363636" stroke-linecap="round" stroke-linejoin="round"/>
<path d="M199.107 602.207L216.697 598.865" stroke="#363636" stroke-linecap="round" stroke-linejoin="round"/>
<path d="M199.107 622.953L216.697 619.762" stroke="#363636" stroke-linecap="round" stroke-linejoin="round"/>
<path d="M227.921 721.241L239.771 719.942L244.386 715.625L254.068 714.755" stroke="#363636" stroke-linecap="round" stroke-linejoin="round"/>
<path d="M279.554 760.064L283.59 756.699L289.747 755.98H293.585H302.049L305.702 753.578" stroke="#363636" stroke-linecap="round" stroke-linejoin="round"/>
<path d="M300.438 713.258C300.438 713.258 313.285 713.653 317.366 715.184" stroke="#363636" stroke-linecap="round" stroke-linejoin="round"/>
<path d="M384.201 834.358C384.201 834.358 396.051 858.422 416.784 872.311" stroke="white" stroke-linecap="round" stroke-linejoin="round"/>
<path d="M499.724 692.744C499.724 692.744 506.635 678.856 527.367 685.342" stroke="#363636" stroke-linecap="round" stroke-linejoin="round"/>
<path d="M501.707 741.801C501.707 741.801 516.514 746.431 511.586 766.794" stroke="#363636" stroke-linecap="round" stroke-linejoin="round"/>
<path d="M333.507 754.727C333.507 754.727 336.812 776.041 345.694 784.372C354.575 792.703 369.394 779.743 369.394 779.743" stroke="#363636" stroke-linecap="round" stroke-linejoin="round"/>
<path d="M283.335 744.853C283.335 745.746 282.558 746.477 281.607 746.477C280.656 746.477 279.879 745.758 279.879 744.853C279.879 743.948 280.656 743.229 281.607 743.229C282.558 743.229 283.335 743.96 283.335 744.853Z" fill="white" stroke="#363636" stroke-linecap="round" stroke-linejoin="round"/>
<path d="M275.948 716.994C277.305 716.994 278.407 718.027 278.407 719.303C278.407 720.58 277.305 721.612 275.948 721.612C274.592 721.612 273.49 720.58 273.49 719.303C273.49 718.027 274.592 716.994 275.948 716.994Z" fill="white" stroke="#363636" stroke-linecap="round" stroke-linejoin="round"/>
<path d="M267.751 744.041C269.107 744.041 270.209 745.073 270.209 746.35C270.209 747.626 269.107 748.659 267.751 748.659C266.394 748.659 265.292 747.626 265.292 746.35C265.292 745.073 266.394 744.041 267.751 744.041Z" fill="white" stroke="#363636" stroke-linecap="round" stroke-linejoin="round"/>
<path d="M279.195 728.864C279.195 729.758 278.418 730.489 277.467 730.489C276.517 730.489 275.74 729.769 275.74 728.864C275.74 727.959 276.517 727.24 277.467 727.24C278.418 727.24 279.195 727.959 279.195 728.864Z" fill="white" stroke="#363636" stroke-linecap="round" stroke-linejoin="round"/>
<path d="M252.294 728.864C252.294 729.758 251.517 730.489 250.566 730.489C249.616 730.489 248.839 729.769 248.839 728.864C248.839 727.959 249.616 727.24 250.566 727.24C251.517 727.24 252.294 727.959 252.294 728.864Z" fill="white" stroke="#363636" stroke-linecap="round" stroke-linejoin="round"/>
<path d="M437.562 847.91L442.212 886.223C442.212 886.223 439.719 893.938 433.527 893.996" stroke="white" stroke-linecap="round" stroke-linejoin="round"/>
<path d="M496.083 850.52C496.083 850.52 499.794 864.455 519.309 872.287" stroke="white" stroke-linecap="round" stroke-linejoin="round"/>
<path d="M464.498 843.129L467.408 853.352" stroke="white" stroke-linecap="round" stroke-linejoin="round"/>
</g>
</g>
</g>
<path d="M68.832 290.414C66.5819 290.414 64.6562 289.945 63.0549 289.006C61.4674 288.067 60.2457 286.735 59.3898 285.01C58.5339 283.27 58.106 281.207 58.106 278.818C58.106 276.941 58.3269 275.071 58.7686 273.207C59.2103 271.33 59.8661 269.563 60.7357 267.906C61.6192 266.236 62.7167 264.759 64.0281 263.475C65.3395 262.177 66.8649 261.156 68.6043 260.41C70.3574 259.665 72.3176 259.292 74.4849 259.292C75.9206 259.292 77.232 259.43 78.4192 259.706C79.6202 259.982 80.7452 260.403 81.7944 260.969L80.407 263.889C79.6064 263.461 78.7229 263.109 77.7566 262.833C76.8041 262.543 75.7135 262.398 74.4849 262.398C72.787 262.398 71.2616 262.709 69.9088 263.33C68.5559 263.937 67.3688 264.779 66.3472 265.856C65.3395 266.919 64.4974 268.148 63.821 269.542C63.1584 270.936 62.6546 272.42 62.3094 273.994C61.9781 275.554 61.8125 277.134 61.8125 278.736C61.8125 281.386 62.482 283.484 63.821 285.03C65.1739 286.563 67.0444 287.329 69.4325 287.329C70.6335 287.329 71.7931 287.212 72.9112 286.977C74.0432 286.742 75.1407 286.445 76.2036 286.086V289.151C75.1268 289.538 74.0156 289.841 72.8698 290.062C71.7379 290.297 70.3919 290.414 68.832 290.414ZM88.1306 290.414C86.902 290.414 85.8253 290.117 84.9004 289.524C83.9755 288.93 83.2577 288.054 82.7469 286.894C82.2361 285.734 81.9807 284.319 81.9807 282.649C81.9807 280.979 82.1533 279.371 82.4984 277.824C82.8573 276.278 83.3612 274.843 84.01 273.518C84.6588 272.192 85.4388 271.033 86.3498 270.039C87.2747 269.045 88.3101 268.272 89.4558 267.72C90.6016 267.167 91.8371 266.891 93.1623 266.891C94.1839 266.891 95.0673 267.085 95.8128 267.471C96.572 267.858 97.2001 268.368 97.6971 269.003C98.2078 269.625 98.6082 270.287 98.8981 270.991H99.1051L100.43 267.306H103.06L98.2562 290H95.5022L96.1234 285.61H95.9577C95.3365 286.438 94.6256 287.218 93.8249 287.95C93.0243 288.682 92.1477 289.275 91.1952 289.731C90.2427 290.186 89.2212 290.414 88.1306 290.414ZM89.2488 287.557C90.3117 287.557 91.3609 287.17 92.3962 286.397C93.4453 285.61 94.384 284.554 95.2123 283.229C96.0544 281.89 96.6963 280.385 97.138 278.715C97.3589 277.9 97.5038 277.155 97.5728 276.479C97.6557 275.788 97.6971 275.146 97.6971 274.553C97.6971 273.131 97.3175 271.985 96.5582 271.116C95.8128 270.232 94.7912 269.79 93.4936 269.79C92.5687 269.79 91.6991 270.025 90.8846 270.494C90.0701 270.95 89.3316 271.592 88.669 272.42C88.0202 273.235 87.4611 274.187 86.9918 275.278C86.5224 276.354 86.1566 277.528 85.8943 278.798C85.6458 280.068 85.5216 281.372 85.5216 282.711C85.5216 284.299 85.846 285.507 86.4948 286.335C87.1436 287.149 88.0616 287.557 89.2488 287.557ZM105.069 290L111.943 257.78H115.381L108.527 290H105.069ZM125.113 290.414C123.429 290.414 121.951 290.097 120.681 289.462C119.425 288.813 118.445 287.86 117.741 286.604C117.051 285.348 116.706 283.788 116.706 281.924C116.706 280.309 116.878 278.756 117.223 277.265C117.582 275.775 118.1 274.401 118.776 273.145C119.453 271.889 120.274 270.791 121.241 269.852C122.207 268.914 123.304 268.189 124.533 267.678C125.775 267.154 127.128 266.891 128.591 266.891C129.571 266.891 130.545 266.988 131.511 267.181C132.491 267.361 133.375 267.623 134.161 267.968L133.188 270.867C132.608 270.591 131.925 270.343 131.138 270.122C130.351 269.901 129.509 269.79 128.612 269.79C127.356 269.79 126.21 270.108 125.175 270.743C124.153 271.378 123.27 272.261 122.524 273.393C121.793 274.511 121.227 275.795 120.826 277.245C120.426 278.694 120.226 280.24 120.226 281.883C120.226 283.056 120.433 284.071 120.847 284.927C121.261 285.769 121.855 286.418 122.628 286.873C123.415 287.329 124.353 287.557 125.444 287.557C126.452 287.557 127.397 287.419 128.281 287.142C129.178 286.866 130.055 286.535 130.911 286.149V289.089C130.151 289.475 129.282 289.793 128.301 290.041C127.335 290.29 126.272 290.414 125.113 290.414ZM141.864 290.414C140.719 290.414 139.718 290.2 138.862 289.772C138.006 289.344 137.343 288.716 136.874 287.888C136.418 287.046 136.191 286.017 136.191 284.803C136.191 284.195 136.232 283.609 136.315 283.043C136.412 282.463 136.515 281.862 136.626 281.241L139.628 267.306H143.107L140.021 281.635C139.911 282.228 139.821 282.76 139.752 283.229C139.697 283.684 139.669 284.092 139.669 284.451C139.669 285.431 139.918 286.197 140.415 286.749C140.926 287.287 141.733 287.557 142.838 287.557C143.873 287.557 144.957 287.205 146.088 286.501C147.234 285.797 148.29 284.692 149.257 283.188C150.237 281.669 150.982 279.702 151.493 277.286L153.605 267.306H157.001L152.197 290H149.36L149.919 285.61H149.733C149.208 286.328 148.573 287.06 147.828 287.805C147.082 288.537 146.22 289.158 145.24 289.669C144.259 290.166 143.134 290.414 141.864 290.414ZM159.444 290L166.319 257.78H169.756L162.902 290H159.444ZM177.211 290.414C175.982 290.414 174.905 290.117 173.98 289.524C173.055 288.93 172.338 288.054 171.827 286.894C171.316 285.734 171.061 284.319 171.061 282.649C171.061 280.979 171.233 279.371 171.578 277.824C171.937 276.278 172.441 274.843 173.09 273.518C173.739 272.192 174.519 271.033 175.43 270.039C176.355 269.045 177.39 268.272 178.536 267.72C179.682 267.167 180.917 266.891 182.242 266.891C183.264 266.891 184.147 267.085 184.893 267.471C185.652 267.858 186.28 268.368 186.777 269.003C187.288 269.625 187.688 270.287 187.978 270.991H188.185L189.51 267.306H192.14L187.336 290H184.582L185.203 285.61H185.038C184.416 286.438 183.706 287.218 182.905 287.95C182.104 288.682 181.228 289.275 180.275 289.731C179.323 290.186 178.301 290.414 177.211 290.414ZM178.329 287.557C179.392 287.557 180.441 287.17 181.476 286.397C182.525 285.61 183.464 284.554 184.292 283.229C185.134 281.89 185.776 280.385 186.218 278.715C186.439 277.9 186.584 277.155 186.653 276.479C186.736 275.788 186.777 275.146 186.777 274.553C186.777 273.131 186.397 271.985 185.638 271.116C184.893 270.232 183.871 269.79 182.574 269.79C181.649 269.79 180.779 270.025 179.965 270.494C179.15 270.95 178.412 271.592 177.749 272.42C177.1 273.235 176.541 274.187 176.072 275.278C175.602 276.354 175.237 277.528 174.974 278.798C174.726 280.068 174.602 281.372 174.602 282.711C174.602 284.299 174.926 285.507 175.575 286.335C176.224 287.149 177.142 287.557 178.329 287.557ZM200.65 290.414C199.146 290.414 197.89 290.055 196.882 289.337C195.888 288.606 195.391 287.356 195.391 285.589C195.391 285.162 195.419 284.699 195.474 284.202C195.529 283.691 195.619 283.167 195.743 282.628L198.414 269.935H194.915L195.246 268.341L199.015 266.891L201.499 262.087H203.549L202.411 267.306H208.25L207.711 269.935H201.893L199.201 282.67C199.104 283.056 199.015 283.471 198.932 283.912C198.863 284.354 198.828 284.775 198.828 285.175C198.828 285.866 199.008 286.445 199.367 286.915C199.726 287.37 200.326 287.598 201.168 287.598C201.693 287.598 202.19 287.55 202.659 287.453C203.142 287.356 203.653 287.218 204.191 287.039V289.689C203.846 289.855 203.322 290.014 202.618 290.166C201.927 290.331 201.272 290.414 200.65 290.414ZM217.278 290.414C215.58 290.414 214.117 290.076 212.888 289.4C211.659 288.709 210.714 287.729 210.051 286.459C209.402 285.175 209.078 283.643 209.078 281.862C209.078 280.026 209.34 278.225 209.865 276.458C210.403 274.677 211.169 273.069 212.163 271.633C213.157 270.184 214.351 269.031 215.746 268.175C217.154 267.319 218.727 266.891 220.467 266.891C222.551 266.891 224.132 267.361 225.209 268.299C226.285 269.224 226.824 270.501 226.824 272.13C226.824 273.276 226.554 274.332 226.016 275.298C225.492 276.265 224.677 277.107 223.573 277.824C222.482 278.529 221.095 279.081 219.411 279.481C217.74 279.868 215.759 280.061 213.468 280.061H212.681C212.653 280.309 212.626 280.585 212.598 280.889C212.584 281.193 212.577 281.476 212.577 281.738C212.577 283.56 213.019 284.989 213.903 286.024C214.786 287.046 216.111 287.557 217.878 287.557C218.969 287.557 219.997 287.405 220.964 287.101C221.944 286.784 222.965 286.369 224.028 285.859V288.82C223.007 289.289 221.978 289.676 220.943 289.979C219.908 290.269 218.686 290.414 217.278 290.414ZM213.178 277.245H213.675C215.442 277.245 217.064 277.093 218.541 276.789C220.018 276.472 221.205 275.961 222.103 275.257C223 274.539 223.448 273.587 223.448 272.399C223.448 271.626 223.186 270.991 222.662 270.494C222.137 269.997 221.336 269.749 220.26 269.749C219.307 269.749 218.368 270.046 217.444 270.639C216.519 271.219 215.677 272.068 214.917 273.186C214.172 274.304 213.592 275.657 213.178 277.245ZM247.033 290.414C245.529 290.414 244.21 290.304 243.078 290.083C241.946 289.862 240.897 289.524 239.931 289.068V285.61C240.801 286.052 241.822 286.459 242.996 286.832C244.169 287.191 245.529 287.37 247.075 287.37C248.027 287.37 248.938 287.26 249.808 287.039C250.678 286.818 251.451 286.473 252.127 286.004C252.817 285.534 253.356 284.934 253.742 284.202C254.143 283.471 254.343 282.601 254.343 281.593C254.343 280.779 254.163 280.061 253.804 279.44C253.459 278.805 252.907 278.197 252.148 277.617C251.389 277.024 250.395 276.389 249.166 275.712C248.117 275.091 247.171 274.442 246.329 273.766C245.501 273.076 244.845 272.275 244.362 271.364C243.879 270.439 243.637 269.321 243.637 268.01C243.637 266.602 243.9 265.359 244.424 264.282C244.949 263.192 245.667 262.281 246.578 261.549C247.503 260.804 248.559 260.245 249.746 259.872C250.947 259.485 252.217 259.292 253.556 259.292C255.143 259.292 256.524 259.451 257.697 259.768C258.871 260.086 260.003 260.514 261.093 261.052L259.747 264.034C258.974 263.62 258.042 263.247 256.952 262.916C255.875 262.571 254.743 262.398 253.556 262.398C252.686 262.398 251.872 262.515 251.113 262.75C250.367 262.971 249.711 263.309 249.145 263.765C248.579 264.22 248.138 264.786 247.82 265.463C247.503 266.125 247.344 266.898 247.344 267.782C247.344 268.679 247.51 269.425 247.841 270.018C248.186 270.612 248.683 271.15 249.332 271.633C249.994 272.116 250.809 272.641 251.775 273.207C253.004 273.925 254.087 274.643 255.026 275.36C255.965 276.064 256.696 276.886 257.221 277.824C257.746 278.749 258.008 279.916 258.008 281.324C258.008 282.842 257.739 284.175 257.2 285.32C256.676 286.452 255.923 287.398 254.943 288.157C253.963 288.903 252.804 289.469 251.465 289.855C250.126 290.228 248.648 290.414 247.033 290.414ZM261.694 290L266.518 267.306H269.334L268.796 271.695H269.003C269.5 270.978 270.101 270.253 270.805 269.521C271.509 268.776 272.323 268.155 273.248 267.658C274.187 267.147 275.25 266.891 276.437 266.891C278.038 266.891 279.253 267.354 280.081 268.279C280.909 269.204 281.393 270.467 281.531 272.068H281.676C282.228 271.226 282.89 270.412 283.663 269.625C284.436 268.824 285.313 268.168 286.293 267.658C287.287 267.147 288.378 266.891 289.565 266.891C291.318 266.891 292.671 267.368 293.623 268.32C294.576 269.273 295.052 270.653 295.052 272.461C295.052 273.11 295.011 273.725 294.928 274.304C294.859 274.884 294.748 275.478 294.596 276.085L291.656 290H288.177L291.242 275.712C291.366 275.091 291.456 274.553 291.511 274.097C291.58 273.642 291.615 273.207 291.615 272.793C291.615 271.868 291.366 271.136 290.869 270.598C290.372 270.06 289.606 269.79 288.571 269.79C287.839 269.79 287.08 269.99 286.293 270.391C285.506 270.791 284.74 271.399 283.995 272.213C283.263 273.014 282.6 274.028 282.007 275.257C281.413 276.485 280.937 277.928 280.578 279.585L278.362 290H274.925L277.948 275.775C278.073 275.14 278.162 274.594 278.218 274.139C278.287 273.669 278.321 273.269 278.321 272.938C278.321 271.958 278.093 271.191 277.638 270.639C277.182 270.073 276.437 269.79 275.401 269.79C274.67 269.79 273.904 269.984 273.103 270.37C272.316 270.757 271.55 271.364 270.805 272.192C270.059 273.021 269.376 274.077 268.755 275.36C268.133 276.644 267.636 278.19 267.264 279.999L265.152 290H261.694ZM305.675 290.414C304.446 290.414 303.369 290.117 302.444 289.524C301.519 288.93 300.802 288.054 300.291 286.894C299.78 285.734 299.525 284.319 299.525 282.649C299.525 280.979 299.697 279.371 300.042 277.824C300.401 276.278 300.905 274.843 301.554 273.518C302.203 272.192 302.983 271.033 303.894 270.039C304.819 269.045 305.854 268.272 307 267.72C308.146 267.167 309.381 266.891 310.706 266.891C311.728 266.891 312.611 267.085 313.357 267.471C314.116 267.858 314.744 268.368 315.241 269.003C315.752 269.625 316.152 270.287 316.442 270.991H316.649L317.974 267.306H320.604L315.8 290H313.046L313.667 285.61H313.502C312.88 286.438 312.17 287.218 311.369 287.95C310.568 288.682 309.692 289.275 308.739 289.731C307.787 290.186 306.765 290.414 305.675 290.414ZM306.793 287.557C307.856 287.557 308.905 287.17 309.94 286.397C310.989 285.61 311.928 284.554 312.756 283.229C313.598 281.89 314.24 280.385 314.682 278.715C314.903 277.9 315.048 277.155 315.117 276.479C315.2 275.788 315.241 275.146 315.241 274.553C315.241 273.131 314.861 271.985 314.102 271.116C313.357 270.232 312.335 269.79 311.038 269.79C310.113 269.79 309.243 270.025 308.429 270.494C307.614 270.95 306.876 271.592 306.213 272.42C305.564 273.235 305.005 274.187 304.536 275.278C304.066 276.354 303.7 277.528 303.438 278.798C303.19 280.068 303.065 281.372 303.065 282.711C303.065 284.299 303.39 285.507 304.039 286.335C304.688 287.149 305.606 287.557 306.793 287.557ZM322.654 290L327.479 267.306H330.295L329.756 271.695H329.963C330.543 270.908 331.164 270.149 331.827 269.418C332.49 268.672 333.242 268.065 334.084 267.595C334.94 267.126 335.92 266.891 337.024 266.891C337.438 266.891 337.86 266.919 338.287 266.974C338.715 267.016 339.116 267.092 339.488 267.202L338.743 270.287C338.37 270.204 338.004 270.142 337.646 270.101C337.3 270.06 336.942 270.039 336.569 270.039C335.52 270.039 334.546 270.315 333.649 270.867C332.752 271.405 331.944 272.13 331.227 273.041C330.522 273.952 329.922 274.967 329.425 276.085C328.942 277.203 328.576 278.342 328.328 279.502L326.112 290H322.654ZM345.887 290.414C344.382 290.414 343.126 290.055 342.118 289.337C341.124 288.606 340.627 287.356 340.627 285.589C340.627 285.162 340.655 284.699 340.71 284.202C340.765 283.691 340.855 283.167 340.979 282.628L343.65 269.935H340.151L340.482 268.341L344.251 266.891L346.736 262.087H348.786L347.647 267.306H353.486L352.948 269.935H347.129L344.437 282.67C344.341 283.056 344.251 283.471 344.168 283.912C344.099 284.354 344.065 284.775 344.065 285.175C344.065 285.866 344.244 286.445 344.603 286.915C344.962 287.37 345.562 287.598 346.404 287.598C346.929 287.598 347.426 287.55 347.895 287.453C348.378 287.356 348.889 287.218 349.428 287.039V289.689C349.083 289.855 348.558 290.014 347.854 290.166C347.164 290.331 346.508 290.414 345.887 290.414ZM362.514 290.414C360.816 290.414 359.353 290.076 358.124 289.4C356.896 288.709 355.95 287.729 355.288 286.459C354.639 285.175 354.314 283.643 354.314 281.862C354.314 280.026 354.577 278.225 355.101 276.458C355.64 274.677 356.406 273.069 357.4 271.633C358.394 270.184 359.588 269.031 360.982 268.175C362.39 267.319 363.964 266.891 365.703 266.891C367.788 266.891 369.368 267.361 370.445 268.299C371.522 269.224 372.06 270.501 372.06 272.13C372.06 273.276 371.791 274.332 371.252 275.298C370.728 276.265 369.913 277.107 368.809 277.824C367.719 278.529 366.331 279.081 364.647 279.481C362.977 279.868 360.996 280.061 358.704 280.061H357.917C357.89 280.309 357.862 280.585 357.835 280.889C357.821 281.193 357.814 281.476 357.814 281.738C357.814 283.56 358.256 284.989 359.139 286.024C360.023 287.046 361.348 287.557 363.115 287.557C364.205 287.557 365.234 287.405 366.2 287.101C367.18 286.784 368.202 286.369 369.265 285.859V288.82C368.243 289.289 367.215 289.676 366.179 289.979C365.144 290.269 363.922 290.414 362.514 290.414ZM358.414 277.245H358.911C360.678 277.245 362.3 277.093 363.777 276.789C365.254 276.472 366.442 275.961 367.339 275.257C368.236 274.539 368.685 273.587 368.685 272.399C368.685 271.626 368.423 270.991 367.898 270.494C367.373 269.997 366.573 269.749 365.496 269.749C364.544 269.749 363.605 270.046 362.68 270.639C361.755 271.219 360.913 272.068 360.154 273.186C359.408 274.304 358.828 275.657 358.414 277.245ZM374.545 290L379.369 267.306H382.186L381.647 271.695H381.854C382.434 270.908 383.055 270.149 383.718 269.418C384.38 268.672 385.133 268.065 385.975 267.595C386.831 267.126 387.811 266.891 388.915 266.891C389.329 266.891 389.75 266.919 390.178 266.974C390.606 267.016 391.007 267.092 391.379 267.202L390.634 270.287C390.261 270.204 389.895 270.142 389.536 270.101C389.191 270.06 388.832 270.039 388.46 270.039C387.411 270.039 386.437 270.315 385.54 270.867C384.643 271.405 383.835 272.13 383.117 273.041C382.413 273.952 381.813 274.967 381.316 276.085C380.833 277.203 380.467 278.342 380.218 279.502L378.003 290H374.545ZM388.294 295.467C388.819 294.321 389.336 293.134 389.847 291.905C390.358 290.69 390.841 289.496 391.296 288.323C391.752 287.149 392.159 286.066 392.518 285.072H396.245L396.411 285.548C395.955 286.556 395.424 287.633 394.817 288.778C394.223 289.924 393.588 291.07 392.912 292.216C392.249 293.361 391.586 294.445 390.924 295.467H388.294ZM62.9099 348.414C61.4053 348.414 60.0869 348.304 58.955 348.083C57.823 347.862 56.7739 347.524 55.8076 347.068V343.61C56.6772 344.052 57.6988 344.459 58.8721 344.832C60.0455 345.191 61.4053 345.37 62.9513 345.37C63.9039 345.37 64.8149 345.26 65.6846 345.039C66.5543 344.818 67.3274 344.473 68.0038 344.004C68.694 343.534 69.2324 342.934 69.6189 342.202C70.0192 341.471 70.2194 340.601 70.2194 339.593C70.2194 338.779 70.0399 338.061 69.681 337.44C69.3359 336.805 68.7837 336.197 68.0245 335.617C67.2652 335.024 66.2713 334.389 65.0427 333.712C63.9936 333.091 63.048 332.442 62.2059 331.766C61.3776 331.076 60.7219 330.275 60.2388 329.364C59.7556 328.439 59.514 327.321 59.514 326.01C59.514 324.602 59.7763 323.359 60.3009 322.282C60.8255 321.192 61.5433 320.281 62.4544 319.549C63.3793 318.804 64.4353 318.245 65.6225 317.872C66.8235 317.485 68.0935 317.292 69.4325 317.292C71.02 317.292 72.4005 317.451 73.5739 317.768C74.7472 318.086 75.8792 318.514 76.9697 319.052L75.6238 322.034C74.8508 321.62 73.919 321.247 72.8284 320.916C71.7517 320.571 70.6197 320.398 69.4325 320.398C68.5628 320.398 67.7484 320.515 66.9891 320.75C66.2437 320.971 65.588 321.309 65.022 321.765C64.456 322.22 64.0143 322.786 63.6968 323.463C63.3793 324.125 63.2205 324.898 63.2205 325.782C63.2205 326.679 63.3862 327.425 63.7175 328.018C64.0626 328.612 64.5596 329.15 65.2084 329.633C65.871 330.116 66.6854 330.641 67.6518 331.207C68.8803 331.925 69.964 332.643 70.9027 333.36C71.8414 334.064 72.573 334.886 73.0976 335.824C73.6222 336.749 73.8845 337.916 73.8845 339.324C73.8845 340.842 73.6153 342.175 73.0769 343.32C72.5523 344.452 71.8 345.398 70.8199 346.157C69.8398 346.903 68.6802 347.469 67.3412 347.855C66.0021 348.228 64.5251 348.414 62.9099 348.414ZM75.4582 358.146L82.3949 325.306H85.211L84.6519 329.716H84.7968C85.4457 328.86 86.1566 328.073 86.9296 327.355C87.7165 326.624 88.5724 326.037 89.4973 325.595C90.436 325.154 91.4575 324.933 92.5618 324.933C93.8042 324.933 94.8879 325.23 95.8128 325.823C96.7377 326.403 97.4555 327.273 97.9663 328.432C98.4908 329.578 98.7531 331.007 98.7531 332.719C98.7531 334.347 98.5875 335.935 98.2562 337.481C97.9387 339.013 97.4693 340.442 96.8481 341.767C96.2269 343.079 95.4608 344.238 94.5497 345.246C93.6524 346.24 92.624 347.02 91.4644 347.586C90.3048 348.138 89.0279 348.414 87.6337 348.414C86.5707 348.414 85.6527 348.228 84.8797 347.855C84.1204 347.469 83.4785 346.965 82.954 346.343C82.4432 345.722 82.036 345.053 81.7323 344.335H81.5459C81.4907 344.846 81.401 345.515 81.2767 346.343C81.1663 347.158 81.0489 347.841 80.9247 348.393L78.854 358.146H75.4582ZM87.3852 345.557C88.3515 345.557 89.235 345.315 90.0356 344.832C90.8501 344.349 91.5748 343.693 92.2098 342.865C92.8586 342.023 93.4039 341.049 93.8456 339.945C94.3012 338.841 94.6463 337.667 94.881 336.425C95.1157 335.183 95.233 333.919 95.233 332.636C95.233 331.034 94.9086 329.826 94.2598 329.012C93.6248 328.198 92.6723 327.79 91.4023 327.79C90.7397 327.79 90.0701 327.956 89.3937 328.287C88.7173 328.605 88.0616 329.06 87.4266 329.654C86.7916 330.234 86.198 330.924 85.6458 331.725C85.0936 332.525 84.6105 333.409 84.1964 334.375C83.796 335.341 83.4785 336.363 83.2439 337.44C83.0092 338.516 82.8918 339.621 82.8918 340.753C82.8918 342.202 83.2577 343.369 83.9893 344.252C84.7347 345.122 85.8667 345.557 87.3852 345.557ZM111.177 348.414C109.479 348.414 108.016 348.076 106.787 347.4C105.559 346.709 104.613 345.729 103.95 344.459C103.302 343.175 102.977 341.643 102.977 339.862C102.977 338.026 103.24 336.225 103.764 334.458C104.302 332.677 105.069 331.069 106.063 329.633C107.056 328.184 108.251 327.031 109.645 326.175C111.053 325.319 112.627 324.891 114.366 324.891C116.45 324.891 118.031 325.361 119.108 326.299C120.184 327.224 120.723 328.501 120.723 330.13C120.723 331.276 120.454 332.332 119.915 333.298C119.391 334.265 118.576 335.107 117.472 335.824C116.381 336.529 114.994 337.081 113.31 337.481C111.64 337.868 109.659 338.061 107.367 338.061H106.58C106.553 338.309 106.525 338.585 106.497 338.889C106.484 339.193 106.477 339.476 106.477 339.738C106.477 341.56 106.918 342.989 107.802 344.024C108.685 345.046 110.011 345.557 111.778 345.557C112.868 345.557 113.897 345.405 114.863 345.101C115.843 344.784 116.865 344.369 117.927 343.859V346.82C116.906 347.289 115.878 347.676 114.842 347.979C113.807 348.269 112.585 348.414 111.177 348.414ZM107.077 335.245H107.574C109.341 335.245 110.963 335.093 112.44 334.789C113.917 334.472 115.104 333.961 116.002 333.257C116.899 332.539 117.348 331.587 117.348 330.399C117.348 329.626 117.085 328.991 116.561 328.494C116.036 327.997 115.236 327.749 114.159 327.749C113.206 327.749 112.268 328.046 111.343 328.639C110.418 329.219 109.576 330.068 108.817 331.186C108.071 332.304 107.491 333.657 107.077 335.245ZM123.063 348L127.929 325.202H130.973L130.434 329.571H130.476C131 328.853 131.628 328.129 132.36 327.397C133.105 326.651 133.968 326.03 134.948 325.533C135.942 325.023 137.067 324.767 138.323 324.767C139.538 324.767 140.581 324.995 141.45 325.45C142.32 325.892 142.989 326.541 143.459 327.397C143.928 328.239 144.163 329.26 144.163 330.461C144.163 331.096 144.114 331.738 144.018 332.387C143.921 333.036 143.818 333.616 143.707 334.127L140.684 348H137.019L140.084 333.671C140.208 333.05 140.304 332.518 140.373 332.077C140.456 331.635 140.498 331.221 140.498 330.834C140.498 329.868 140.235 329.136 139.711 328.639C139.186 328.142 138.413 327.894 137.392 327.894C136.384 327.894 135.321 328.239 134.203 328.929C133.085 329.619 132.049 330.71 131.097 332.201C130.144 333.678 129.406 335.611 128.881 337.999L126.748 348H123.063ZM154.661 348.414C153.419 348.414 152.335 348.124 151.41 347.544C150.485 346.965 149.767 346.102 149.257 344.956C148.746 343.797 148.49 342.361 148.49 340.649C148.49 339.02 148.656 337.44 148.987 335.907C149.319 334.361 149.795 332.926 150.416 331.6C151.051 330.275 151.824 329.116 152.735 328.122C153.646 327.114 154.682 326.334 155.841 325.782C157.015 325.216 158.298 324.933 159.693 324.933C160.756 324.933 161.667 325.126 162.426 325.513C163.185 325.899 163.813 326.403 164.31 327.024C164.821 327.632 165.221 328.287 165.511 328.991H165.718C165.801 328.356 165.884 327.742 165.967 327.148C166.05 326.541 166.146 325.927 166.257 325.306C166.381 324.684 166.519 324.042 166.671 323.38L168.265 315.78H171.682L164.849 348H162.012L162.571 343.61H162.426C161.763 344.466 161.039 345.26 160.252 345.991C159.479 346.723 158.63 347.31 157.705 347.752C156.78 348.193 155.765 348.414 154.661 348.414ZM155.821 345.557C156.469 345.557 157.125 345.398 157.788 345.08C158.464 344.763 159.12 344.314 159.755 343.734C160.39 343.141 160.983 342.444 161.536 341.643C162.088 340.842 162.571 339.959 162.985 338.993C163.413 338.026 163.744 337.005 163.979 335.928C164.214 334.851 164.331 333.74 164.331 332.594C164.331 331.131 163.979 329.965 163.275 329.095C162.571 328.225 161.446 327.79 159.9 327.79C158.947 327.79 158.064 328.032 157.249 328.515C156.449 328.998 155.724 329.661 155.075 330.503C154.426 331.345 153.874 332.318 153.419 333.423C152.977 334.513 152.632 335.686 152.383 336.943C152.149 338.185 152.031 339.441 152.031 340.711C152.031 342.299 152.349 343.507 152.984 344.335C153.619 345.149 154.564 345.557 155.821 345.557ZM187.895 348L186.591 317.727H190.028L190.691 336.673C190.732 337.805 190.732 338.972 190.691 340.173C190.663 341.36 190.615 342.506 190.546 343.61H190.67C191.07 342.533 191.533 341.326 192.057 339.987C192.596 338.634 193.162 337.343 193.755 336.114L202.369 317.727H205.91L206.842 336.052C206.925 337.322 206.98 338.648 207.007 340.028C207.035 341.408 207.042 342.609 207.028 343.631H207.152C207.401 342.927 207.663 342.188 207.939 341.415C208.215 340.628 208.505 339.828 208.809 339.013C209.113 338.199 209.437 337.384 209.782 336.57L218.003 317.727H221.709L207.981 348H204.419L203.425 327.935C203.384 327.328 203.349 326.693 203.322 326.03C203.294 325.368 203.273 324.712 203.26 324.063C203.26 323.414 203.26 322.807 203.26 322.241H203.135C202.873 323.069 202.562 323.904 202.203 324.746C201.845 325.589 201.368 326.658 200.775 327.956L191.477 348H187.895ZM219.328 348L224.152 325.306H227.611L222.786 348H219.328ZM227.051 321.33C226.499 321.33 226.037 321.171 225.664 320.854C225.305 320.522 225.126 320.06 225.126 319.466C225.126 319.011 225.215 318.583 225.395 318.182C225.588 317.782 225.857 317.465 226.202 317.23C226.561 316.981 226.996 316.857 227.507 316.857C228.114 316.857 228.57 317.016 228.874 317.333C229.177 317.651 229.329 318.093 229.329 318.659C229.329 319.473 229.094 320.122 228.625 320.605C228.156 321.088 227.631 321.33 227.051 321.33ZM235.458 348.414C234.078 348.414 232.863 348.276 231.814 348C230.779 347.724 229.874 347.379 229.101 346.965V343.776C229.833 344.218 230.758 344.632 231.876 345.018C233.008 345.405 234.168 345.598 235.355 345.598C236.528 345.598 237.501 345.439 238.274 345.122C239.061 344.804 239.648 344.369 240.034 343.817C240.435 343.251 240.635 342.596 240.635 341.85C240.635 341.257 240.504 340.746 240.242 340.318C239.993 339.876 239.579 339.448 238.999 339.034C238.433 338.62 237.674 338.144 236.721 337.605C235.658 337.012 234.761 336.411 234.03 335.804C233.298 335.196 232.739 334.534 232.352 333.816C231.98 333.084 231.793 332.235 231.793 331.269C231.793 329.971 232.111 328.846 232.746 327.894C233.381 326.941 234.271 326.203 235.417 325.678C236.576 325.154 237.929 324.891 239.475 324.891C240.842 324.891 242.105 325.05 243.265 325.368C244.424 325.671 245.425 326.023 246.267 326.424L245.149 329.178C244.431 328.833 243.61 328.515 242.685 328.225C241.76 327.935 240.69 327.79 239.475 327.79C238.178 327.79 237.142 328.087 236.369 328.681C235.61 329.274 235.231 330.075 235.231 331.083C235.231 331.607 235.341 332.077 235.562 332.491C235.797 332.905 236.197 333.319 236.763 333.733C237.329 334.133 238.102 334.603 239.082 335.141C240.034 335.693 240.89 336.259 241.65 336.839C242.423 337.405 243.03 338.061 243.472 338.806C243.927 339.538 244.155 340.442 244.155 341.519C244.155 342.996 243.803 344.252 243.099 345.287C242.395 346.309 241.387 347.089 240.076 347.627C238.778 348.152 237.239 348.414 235.458 348.414ZM257.449 348.414C255.751 348.414 254.288 348.076 253.059 347.4C251.83 346.709 250.885 345.729 250.222 344.459C249.573 343.175 249.249 341.643 249.249 339.862C249.249 338.026 249.511 336.225 250.036 334.458C250.574 332.677 251.34 331.069 252.334 329.633C253.328 328.184 254.522 327.031 255.916 326.175C257.325 325.319 258.898 324.891 260.638 324.891C262.722 324.891 264.303 325.361 265.379 326.299C266.456 327.224 266.995 328.501 266.995 330.13C266.995 331.276 266.725 332.332 266.187 333.298C265.662 334.265 264.848 335.107 263.744 335.824C262.653 336.529 261.266 337.081 259.582 337.481C257.911 337.868 255.93 338.061 253.639 338.061H252.852C252.824 338.309 252.797 338.585 252.769 338.889C252.755 339.193 252.748 339.476 252.748 339.738C252.748 341.56 253.19 342.989 254.074 344.024C254.957 345.046 256.282 345.557 258.049 345.557C259.14 345.557 260.168 345.405 261.135 345.101C262.115 344.784 263.136 344.369 264.199 343.859V346.82C263.178 347.289 262.149 347.676 261.114 347.979C260.079 348.269 258.857 348.414 257.449 348.414ZM253.349 335.245H253.846C255.613 335.245 257.235 335.093 258.712 334.789C260.189 334.472 261.376 333.961 262.273 333.257C263.171 332.539 263.619 331.587 263.619 330.399C263.619 329.626 263.357 328.991 262.833 328.494C262.308 327.997 261.507 327.749 260.431 327.749C259.478 327.749 258.539 328.046 257.614 328.639C256.69 329.219 255.847 330.068 255.088 331.186C254.343 332.304 253.763 333.657 253.349 335.245ZM269.479 348L274.304 325.306H277.12L276.582 329.695H276.789C277.369 328.908 277.99 328.149 278.652 327.418C279.315 326.672 280.067 326.065 280.909 325.595C281.765 325.126 282.745 324.891 283.85 324.891C284.264 324.891 284.685 324.919 285.113 324.974C285.541 325.016 285.941 325.092 286.314 325.202L285.568 328.287C285.196 328.204 284.83 328.142 284.471 328.101C284.126 328.06 283.767 328.039 283.394 328.039C282.345 328.039 281.372 328.315 280.475 328.867C279.577 329.405 278.77 330.13 278.052 331.041C277.348 331.952 276.747 332.967 276.25 334.085C275.767 335.203 275.401 336.342 275.153 337.502L272.937 348H269.479ZM299.028 348.58C298.379 348.58 297.875 348.393 297.516 348.021C297.157 347.662 296.978 347.151 296.978 346.488C296.978 345.619 297.219 344.853 297.702 344.19C298.199 343.514 298.972 343.175 300.022 343.175C300.601 343.175 301.071 343.355 301.43 343.714C301.789 344.073 301.968 344.597 301.968 345.287C301.968 346.102 301.726 346.854 301.243 347.544C300.76 348.235 300.022 348.58 299.028 348.58ZM309.671 348.58C309.022 348.58 308.518 348.393 308.159 348.021C307.8 347.662 307.621 347.151 307.621 346.488C307.621 345.619 307.863 344.853 308.346 344.19C308.843 343.514 309.616 343.175 310.665 343.175C311.245 343.175 311.714 343.355 312.073 343.714C312.432 344.073 312.611 344.597 312.611 345.287C312.611 346.102 312.37 346.854 311.887 347.544C311.403 348.235 310.665 348.58 309.671 348.58ZM320.314 348.58C319.665 348.58 319.161 348.393 318.803 348.021C318.444 347.662 318.264 347.151 318.264 346.488C318.264 345.619 318.506 344.853 318.989 344.19C319.486 343.514 320.259 343.175 321.308 343.175C321.888 343.175 322.357 343.355 322.716 343.714C323.075 344.073 323.254 344.597 323.254 345.287C323.254 346.102 323.013 346.854 322.53 347.544C322.047 348.235 321.308 348.58 320.314 348.58Z" fill="black"/>
</g>
<defs>
<clipPath id="clip0_43_637">
<rect width="703" height="983" fill="white"/>
</clipPath>
<clipPath id="clip1_43_637">
<rect width="800" height="550" fill="white" transform="translate(-97 434)"/>
</clipPath>
</defs>
</svg>
